<?xml version="1.0" encoding="utf-8"?>
<!-- Generator: Adobe Illustrator 17.0.0, SVG Export Plug-In . SVG Version: 6.00 Build 0)  -->
<!DOCTYPE svg PUBLIC "-//W3C//DTD SVG 1.1//EN" "http://www.w3.org/Graphics/SVG/1.1/DTD/svg11.dtd">
<svg version="1.1" id="Layer_1" xmlns="http://www.w3.org/2000/svg" xmlns:xlink="http://www.w3.org/1999/xlink" x="0px" y="0px"
	 width="239.651px" height="261.027px" viewBox="162.422 136.936 239.651 261.027"
	 enable-background="new 162.422 136.936 239.651 261.027" xml:space="preserve">
<path fill="#FFF" d="M401.683,324.201c0,5.34-2.96,11.39-6.58,13.46l-106.56,57.37c-3.62,2.07-9.54,2.06-13.16,0l-105.12-57.36
	c-3.62-2.07-6.58-8.13-6.58-13.47v-112.22c0-5.34,2.96-11.4,6.58-13.47l105.12-58.37c3.62-2.07,9.54-2.08,13.16-0.01l106.56,58.39
	c3.62,2.07,6.58,8.12,6.58,13.46V324.201z"/>
<path fill="#F05023" d="M349.683,296.461c-1.49,0.39-2.96,0.81-4.52,0.81c-3.18,0-6.17-0.87-8.33-2.65
	c-2.1-1.78-3.15-4.25-3.15-7.45v-70.59h-32v12.37c-4.28-5.07-9.23-8.89-14.8-11.24c-5.58-2.32-11.91-3.5-18.42-3.5
	c-7.84,0-14.89,1.51-21.23,4.5c-6.31,2.98-11.7,7.01-16.2,12.05c-4.45,5.07-7.9,10.95-10.33,17.68c-2.4,6.74-3.6,13.85-3.6,21.35
	c0,7.66,1.2,14.87,3.6,21.6c2.43,6.73,5.88,12.63,10.33,17.68c4.5,5.04,9.89,9.07,16.2,12.07c6.34,2.99,13.39,4.48,21.23,4.48
	c7.64,0,14.52-1.52,20.68-4.61c6.12-3.11,11.24-7.93,15.34-14.47c2.61,5.61,6.29,10.19,11.01,13.76c4.76,3.56,10.21,5.32,16.36,5.32
	c4.27,0,9.32-0.51,13.6-1.52c1.57-0.4,2.77-1.45,4.23-2.04L349.683,296.461L349.683,296.461z M247.523,270.181
	c0-16.26,12.06-29.44,26.95-29.44c14.88,0,26.95,13.18,26.95,29.44s-12.07,29.44-26.95,29.44
	C259.583,299.621,247.523,286.441,247.523,270.181z"/>
</svg>
