<?xml version="1.0" encoding="utf-8"?>
<!-- Generator: Adobe Illustrator 17.0.0, SVG Export Plug-In . SVG Version: 6.00 Build 0)  -->
<!DOCTYPE svg PUBLIC "-//W3C//DTD SVG 1.1//EN" "http://www.w3.org/Graphics/SVG/1.1/DTD/svg11.dtd">
<svg version="1.1" id="Layer_1" xmlns="http://www.w3.org/2000/svg" xmlns:xlink="http://www.w3.org/1999/xlink" x="0px" y="0px"
	 width="406.551px" height="300.209px" viewBox="81.414 134.474 406.551 300.209"
	 enable-background="new 81.414 134.474 406.551 300.209" xml:space="preserve">
<g>
	<path fill="#F05023" d="M487.581,339.979c0,6.689-5.047,14.278-11.215,16.866l-180.553,75.734
		c-6.168,2.587-16.26,2.582-22.425-0.011L93.394,356.856c-6.166-2.593-11.21-10.188-11.21-16.877V229.3
		c0-6.689,5.045-14.284,11.21-16.877l179.993-75.713c6.166-2.594,16.257-2.599,22.425-0.011l180.554,75.735
		c6.168,2.587,11.215,10.177,11.215,16.866L487.581,339.979L487.581,339.979z"/>
</g>
<g>
	<path fill="#FFFFFF" d="M233.671,300.057c-1.064,0.301-2.19,0.453-3.425,0.453c-3.73,0-6.537-1.064-8.399-3.201
		c-1.854-2.137-2.797-5.005-2.797-8.619v-11.645h-8.265v-8.934h8.265v-14.95h9.522v14.95h8.099v8.934h-8.099v10.298
		c0,1.274,0.292,2.393,0.884,3.362c0.583,0.97,1.571,1.455,2.954,1.455c0.79,0,1.535-0.135,2.262-0.418
		c0.719-0.278,1.392-0.61,1.998-1.006v7.686C235.741,299.203,234.726,299.746,233.671,300.057z"/>
	<path fill="#FFFFFF" d="M371.2,300.057c-1.059,0.301-2.199,0.453-3.416,0.453c-3.739,0-6.541-1.064-8.399-3.201
		c-1.867-2.137-2.802-5.005-2.802-8.619v-11.645h-8.269v-8.934h8.269v-14.95h9.518v14.95h8.112v8.934h-8.112v10.298
		c0,1.274,0.297,2.393,0.88,3.362c0.588,0.97,1.58,1.455,2.972,1.455c0.777,0,1.527-0.135,2.245-0.418
		c0.728-0.278,1.396-0.61,2.016-1.006v7.686C373.257,299.203,372.26,299.746,371.2,300.057z"/>
	<path fill="#FFFFFF" d="M388.476,262.494c-1.078,1.104-2.37,1.648-3.865,1.648c-1.54,0-2.859-0.544-3.929-1.648
		c-1.077-1.095-1.616-2.393-1.616-3.892s0.539-2.792,1.616-3.897c1.069-1.095,2.389-1.651,3.929-1.651
		c1.495,0,2.787,0.557,3.865,1.651c1.072,1.105,1.607,2.398,1.607,3.897C390.083,260.102,389.548,261.399,388.476,262.494z"/>
	<path fill="#FFFFFF" d="M173.523,291.832c-0.444,0.117-0.884,0.242-1.352,0.242c-0.952,0-1.742-0.26-2.388-0.79
		c-0.628-0.529-0.943-1.266-0.943-2.218v-21.045h-9.526v3.681c-1.28-1.509-2.761-2.604-4.427-3.304
		c-1.67-0.691-3.483-1.042-5.432-1.042c-2.343,0-4.453,0.448-6.348,1.338c-1.89,0.889-3.501,2.087-4.849,3.587
		c-1.329,1.508-2.361,3.26-3.088,5.262c-0.718,2.006-1.078,4.121-1.078,6.352c0,2.281,0.359,4.427,1.078,6.43
		c0.727,2.002,1.76,3.757,3.088,5.261c1.347,1.499,2.958,2.698,4.849,3.592c1.895,0.889,4.004,1.333,6.348,1.333
		c2.285,0,4.346-0.453,6.186-1.373c1.831-0.926,3.362-2.357,4.588-4.306c0.781,1.67,1.881,3.034,3.295,4.095
		c1.423,1.059,3.053,1.584,4.893,1.584c1.275,0,2.559-0.152,3.838-0.453c0.471-0.117,0.831-0.432,1.266-0.606v-7.62H173.523z
		 M159.315,287.15c-0.62,1.62-1.603,2.922-2.972,3.928c-1.365,0.996-2.909,1.499-4.628,1.499c-1.171,0-2.258-0.233-3.259-0.709
		s-1.867-1.113-2.595-1.921c-0.714-0.809-1.289-1.725-1.701-2.757c-0.422-1.028-0.624-2.128-0.624-3.296
		c0-1.172,0.202-2.272,0.624-3.304c0.413-1.028,0.987-1.948,1.701-2.757c0.727-0.803,1.594-1.445,2.595-1.912
		c1.001-0.476,2.088-0.719,3.259-0.719c1.719,0,3.264,0.504,4.628,1.504c1.369,1.006,2.353,2.316,2.972,3.929V287.15z"/>
	<path fill="#FFFFFF" d="M210.614,291.877c-0.404,0.099-0.809,0.221-1.244,0.221c-0.889,0-1.67-0.262-2.339-0.786
		c-0.669-0.53-1.001-1.267-1.001-2.209v-20.991h-9.517v18.576c0,0.112-0.054,0.377-0.162,0.79c-0.117,0.417-0.198,0.673-0.256,0.786
		c-0.444,1.216-1.091,2.227-1.917,3.029c-0.835,0.799-1.948,1.203-3.349,1.203c-1.392,0-2.415-0.457-3.088-1.373
		c-0.665-0.907-0.997-2.002-0.997-3.277v-19.734h-9.521v20.825c0,1.554,0.278,3.039,0.83,4.453c0.566,1.415,1.32,2.653,2.303,3.708
		c0.97,1.055,2.142,1.899,3.497,2.541c1.374,0.633,2.864,0.957,4.471,0.957c1.948,0,3.771-0.472,5.472-1.414
		c1.692-0.947,2.932-2.33,3.713-4.171c0.79,1.616,1.876,2.931,3.304,3.96c1.418,1.027,3.043,1.539,4.884,1.539
		c1.221,0,2.478-0.152,3.757-0.453c0.436-0.107,0.759-0.395,1.159-0.553v-7.627H210.614z"/>
	<path fill="#FFFFFF" d="M275.92,291.773c-0.53,0.185-1.078,0.301-1.661,0.301c-0.889,0-1.665-0.26-2.335-0.79
		c-0.673-0.529-1.015-1.266-1.015-2.218V278.88c0-1.559-0.26-3.031-0.826-4.427c-0.562-1.388-1.32-2.617-2.29-3.673
		c-0.978-1.055-2.145-1.89-3.515-2.509c-1.36-0.61-2.855-0.916-4.467-0.916c-1.562,0-3.08,0.306-4.547,0.916
		c-1.481,0.619-2.694,1.562-3.632,2.842v-24.512h-9.518v53.157h9.518v-18.707c0-0.111,0.054-0.377,0.162-0.794
		c0.117-0.417,0.197-0.683,0.256-0.795c0.444-1.216,1.081-2.235,1.917-3.048c0.835-0.804,1.948-1.213,3.34-1.213
		c1.401,0,2.424,0.463,3.085,1.383c0.673,0.916,1.01,2.021,1.01,3.296v10.442c0,1.283,0.225,2.531,0.669,3.757
		c0.444,1.226,1.051,2.312,1.836,3.255c0.781,0.947,1.742,1.711,2.873,2.299c1.159,0.584,2.42,0.875,3.807,0.875
		c1.226,0,2.478-0.152,3.753-0.453c0.592-0.144,1.05-0.512,1.58-0.754L275.92,291.773L275.92,291.773z"/>
	<path fill="#FFFFFF" d="M348.386,291.77c-0.538,0.189-1.104,0.305-1.684,0.305c-0.902,0-1.674-0.26-2.348-0.79
		c-0.669-0.529-0.996-1.266-0.996-2.218v-10.186c0-1.559-0.288-3.031-0.84-4.427c-0.553-1.388-1.324-2.617-2.294-3.673
		c-0.97-1.055-2.145-1.89-3.506-2.509c-1.37-0.61-2.851-0.916-4.477-0.916c-1.553,0-3.07,0.306-4.552,0.916
		c-1.468,0.619-2.676,1.562-3.632,2.842v-3.093h-9.513v31.738h9.513v-18.621c0-0.117,0.059-0.395,0.175-0.835
		c0.107-0.449,0.189-0.728,0.242-0.84c0.449-1.216,1.096-2.235,1.927-3.048c0.839-0.804,1.948-1.213,3.344-1.213
		c1.383,0,2.416,0.463,3.085,1.383c0.673,0.916,1.01,2.021,1.01,3.296v10.442c0,1.283,0.215,2.531,0.664,3.757
		c0.44,1.226,1.055,2.312,1.832,3.255c0.781,0.947,1.742,1.711,2.882,2.299c1.141,0.584,2.411,0.875,3.807,0.875
		c1.213,0,2.479-0.152,3.753-0.453c0.602-0.148,1.069-0.521,1.607-0.772v-7.514H348.386z"/>
	<path fill="#FFFFFF" d="M393.907,291.81c-0.476,0.14-0.956,0.265-1.49,0.265c-0.889,0-1.67-0.26-2.334-0.79
		c-0.669-0.529-1.002-1.266-1.002-2.218v-21.045h-9.432v22.303c0,1.283,0.207,2.531,0.619,3.757
		c0.423,1.226,1.033,2.312,1.841,3.255c0.809,0.947,1.765,1.711,2.873,2.299c1.123,0.584,2.361,0.875,3.763,0.875
		c1.221,0,2.474-0.152,3.762-0.453c0.525-0.131,0.925-0.467,1.4-0.674L393.907,291.81L393.907,291.81z"/>
	<path fill="#FFFFFF" d="M436.071,310.517c-0.477,0.14-0.961,0.27-1.469,0.27c-0.947,0-1.737-0.27-2.374-0.8
		c-0.646-0.529-0.961-1.266-0.961-2.208v-39.757h-9.526v3.932c-1.275-1.615-2.766-2.787-4.463-3.51
		c-1.696-0.723-3.551-1.087-5.558-1.087c-2.334,0-4.453,0.448-6.348,1.338c-1.886,0.889-3.502,2.087-4.83,3.587
		c-1.347,1.508-2.384,3.26-3.098,5.262c-0.727,2.006-1.096,4.121-1.096,6.352c0,2.281,0.368,4.427,1.096,6.43
		c0.714,2.002,1.751,3.757,3.098,5.261c1.328,1.499,2.944,2.698,4.83,3.592c1.895,0.889,4.014,1.333,6.348,1.333
		c2.007,0,3.861-0.363,5.558-1.082c1.697-0.727,3.188-1.895,4.463-3.51v13.197c0,1.28,0.216,2.533,0.629,3.754
		c0.412,1.226,1.032,2.312,1.831,3.259c0.808,0.942,1.768,1.716,2.892,2.299c1.103,0.583,2.361,0.876,3.753,0.876
		c1.274,0,2.563-0.167,3.838-0.504c0.517-0.13,0.911-0.471,1.388-0.673v-7.611H436.071z M421.741,286.651
		c0,0.108-0.081,0.341-0.252,0.71c-0.161,0.358-0.277,0.597-0.322,0.709c-0.674,1.338-1.652,2.42-2.928,3.254
		c-1.283,0.836-2.711,1.253-4.26,1.253c-1.168,0-2.259-0.233-3.264-0.709c-0.997-0.476-1.859-1.113-2.586-1.921
		c-0.728-0.809-1.293-1.725-1.711-2.757c-0.417-1.028-0.624-2.128-0.624-3.296c0-1.172,0.207-2.272,0.624-3.304
		c0.418-1.028,0.983-1.948,1.711-2.757c0.727-0.803,1.589-1.445,2.586-1.912c1.005-0.476,2.096-0.719,3.264-0.719
		c1.549,0,2.977,0.423,4.26,1.258c1.275,0.835,2.254,1.922,2.928,3.254c0.045,0.113,0.161,0.351,0.322,0.715
		c0.171,0.359,0.252,0.592,0.252,0.709V286.651z"/>
	<path fill="#FFFFFF" d="M300.777,290.598c-0.979,0.373-1.962,0.68-2.936,0.922v-0.006c-0.763,0.22-1.526,0.389-2.294,0.444
		c-1.149,0.089-2.244-0.027-3.259-0.346s-1.922-0.84-2.712-1.567c-0.126-0.111-0.197-0.314-0.315-0.457l0.009-0.045l20.489-8.185
		l-0.79-1.984c-3.941-9.876-12.462-13.796-20.695-10.509c-7.659,3.062-11.205,10.59-9.643,18.101
		c0.009,0.054,0.018,0.107,0.027,0.161c0.054,0.247,0.117,0.485,0.188,0.723c0.233,0.957,0.548,1.913,0.961,2.86
		c0.862,1.993,2.02,3.717,3.322,5.108c0,0.01,0.018,0.005,0.026,0.014c0.054,0.062,0.117,0.131,0.171,0.197
		c0.054,0.05,0.099,0.1,0.144,0.145c0.054,0.049,0.117,0.103,0.18,0.156c1.006,0.975,2.083,1.76,3.205,2.316
		c0.638,0.346,1.284,0.656,1.967,0.898c1.976,0.719,4.103,1.032,6.374,0.934c2.281-0.103,4.57-0.61,6.878-1.531
		c1.293-0.518,2.649-1.221,4.022-2.074v-9.207C304.508,288.802,302.774,289.836,300.777,290.598z M287.421,283.303
		c-0.493-2.245-0.152-5.729,3.718-7.273c4.085-1.629,6.707,0.741,7.748,2.693L287.421,283.303z"/>
</g>
</svg>
