<?xml version="1.0" encoding="UTF-8" standalone="no"?>
<svg width="16px" height="16px" viewBox="0 0 16 16" version="1.1" xmlns="http://www.w3.org/2000/svg" xmlns:xlink="http://www.w3.org/1999/xlink">
    <!-- Generator: Sketch 39.1 (31720) - http://www.bohemiancoding.com/sketch -->
    <title>analytics-icon</title>
    <desc>Created with Sketch.</desc>
    <defs></defs>
    <g id="Symbols" stroke="none" stroke-width="1" fill="none" fill-rule="evenodd">
        <g id="menu" transform="translate(0.000000, -199.000000)" fill="#FFFFFF">
            <path d="M15.4354806,213.8701 L1.12990019,213.8701 L1.12990019,199.565208 C1.12990019,199.248237 0.882180041,199 0.565208497,199 C0.248236953,199 0,199.248237 0,199.565208 L0,214.435481 C0,214.75228 0.248236953,215 0.565208497,215 L15.4354806,215 C15.7522798,215 16,214.75228 16,214.435481 C16,214.118509 15.7522798,213.8701 15.4354806,213.8701 Z M6,211.450746 L6,203.549254 C6,203.241397 5.78026837,203 5.49969503,203 C5.21912168,203 5,203.241397 5,203.549254 L5,211.450746 C5,211.75877 5.21912168,212 5.49969503,212 C5.78026837,212 6,211.75877 6,211.450746 Z M4,211.450746 L4,203.549254 C4,203.241397 3.78026837,203 3.49969503,203 C3.21912168,203 3,203.241397 3,203.549254 L3,211.450746 C3,211.75877 3.21912168,212 3.49969503,212 C3.78026837,212 4,211.75877 4,211.450746 Z M10,211.572802 L10,205.427198 C10,205.187753 9.78030188,205 9.49977131,205 C9.21924074,205 9,205.187753 9,205.427198 L9,211.572802 C9,211.812377 9.21924074,212 9.49977131,212 C9.78030188,212 10,211.812377 10,211.572802 Z M14,211.511774 L14,204.488226 C14,204.214575 13.7803019,204 13.4997713,204 C13.2192407,204 13,204.214575 13,204.488226 L13,211.511774 C13,211.785573 13.2192407,212 13.4997713,212 C13.7803019,212 14,211.785573 14,211.511774 Z M12,211.456068 L12,207.543269 C12,207.238229 11.7801494,207 11.4997713,207 C11.2192407,207 11,207.238229 11,207.543269 L11,211.456068 C11,211.761107 11.2192407,212 11.4997713,212 C11.7801494,212 12,211.761107 12,211.456068 Z M8,211.456068 L8,207.543269 C8,207.238229 7.78026837,207 7.49969503,207 C7.21912168,207 7,207.238229 7,207.543269 L7,211.456068 C7,211.761107 7.21912168,212 7.49969503,212 C7.78026837,212 8,211.761107 8,211.456068 Z" id="analytics-icon"></path>
        </g>
    </g>
</svg>