<?xml version="1.0" encoding="UTF-8" standalone="no"?>
<svg width="20px" height="15px" viewBox="0 0 20 15" version="1.1" xmlns="http://www.w3.org/2000/svg" xmlns:xlink="http://www.w3.org/1999/xlink">
    <!-- Generator: Sketch 39.1 (31720) - http://www.bohemiancoding.com/sketch -->
    <title>billing-icon</title>
    <desc>Created with Sketch.</desc>
    <defs></defs>
    <g id="Symbols" stroke="none" stroke-width="1" fill="none" fill-rule="evenodd">
        <g id="menu" transform="translate(0.000000, -319.000000)" fill="#FFFFFF">
            <path d="M1.62293529,319 C0.72626497,319 0,319.796304 0,320.779448 L0,325.5625 L0,326.5 L0,332.220552 C0,333.203696 0.72626497,334 1.62293529,334 L18.3770647,334 C19.273735,334 20,333.203696 20,332.220552 L20,320.777029 C19.9977944,319.796304 19.2714886,319 18.3770647,319 L1.62293529,319 Z M1,323 L19,323 L19,321 L1,321 L1,323 Z M18.2819787,333 L1.71802131,333 C1.33455973,333 1,332.625752 1,332.133416 L1,325 L19,325 L19,332.106757 C19,332.596218 18.6875289,333 18.2819787,333 L18.2819787,333 Z M18,327.501212 C18,327.778806 17.7904483,328 17.5272986,328 L12.4728347,328 C12.2096849,328 12,327.778806 12,327.501212 C12,327.223618 12.2096849,327.002423 12.4728347,327.002423 L17.500433,327.002423 C17.7637603,326.974224 18,327.195278 18,327.501212 L18,327.501212 Z M18,330.50007 C18,330.778378 17.7817602,331 17.5077001,331 L14.4924386,331 C14.2181936,331 14,330.778378 14,330.50007 C14,330.221622 14.2181936,330 14.4924386,330 L17.5077001,330 C17.7539657,330 18,330.221622 18,330.50007 L18,330.50007 Z" id="billing-icon"></path>
        </g>
    </g>
</svg>