<?xml version="1.0" encoding="UTF-8" standalone="no"?>
<svg width="21px" height="20px" viewBox="0 0 21 20" version="1.1" xmlns="http://www.w3.org/2000/svg" xmlns:xlink="http://www.w3.org/1999/xlink">
    <!-- Generator: Sketch 39.1 (31720) - http://www.bohemiancoding.com/sketch -->
    <title>configuration-icon</title>
    <desc>Created with Sketch.</desc>
    <defs></defs>
    <g id="Symbols" stroke="none" stroke-width="1" fill="none" fill-rule="evenodd">
        <g id="menu" transform="translate(1.000000, -106.000000)" stroke="#FFFFFF">
            <path d="M16.1856735,113.618612 L16.0964898,113.586816 L15.749449,112.760122 L15.787449,112.675204 C16.8386531,110.294 16.7657551,110.223041 16.5916531,110.050102 L15.1906939,108.684041 C15.1329184,108.626265 15.0332653,108.587102 14.9467959,108.587102 C14.8680816,108.587102 14.6288367,108.587102 12.5597755,109.524694 L12.4779592,109.561143 L11.6237347,109.217204 L11.5903878,109.132286 C10.6163469,106.723939 10.5178571,106.723939 10.2755102,106.723939 L8.29718367,106.723939 C8.05638776,106.723939 7.94587755,106.723939 7.04473469,109.136939 L7.00983673,109.224571 L6.16181633,109.570061 L6.08,109.536714 C4.68020408,108.946163 3.86242857,108.647592 3.65032653,108.647592 C3.56385714,108.647592 3.46265306,108.685592 3.40487755,108.74298 L2.00236735,110.112143 C1.82516327,110.288184 1.75110204,110.362245 2.85659184,112.693429 L2.89769388,112.77951 L2.54910204,113.606592 L2.46418367,113.638388 C0,114.591102 0,114.684939 0,114.931939 L0,116.870714 C0,117.119265 0,117.22202 2.47038776,118.108429 L2.55840816,118.138673 L2.90506122,118.962653 L2.86861224,119.047184 C1.81779592,121.429939 1.88410204,121.493531 2.06285714,121.672286 L3.46265306,123.039898 C3.52004082,123.096122 3.62163265,123.136837 3.70771429,123.136837 C3.78681633,123.136837 4.0245102,123.136837 6.09512245,122.200796 L6.17693878,122.161633 L7.03116327,122.506735 L7.0645102,122.591653 C8.03816327,125 8.13820408,125 8.38055102,125 L10.3588776,125 C10.6070408,125 10.7101837,125 11.6128776,122.585449 L11.6462245,122.497816 L12.4961837,122.153878 L12.578,122.187224 C13.9758571,122.779327 14.7936327,123.077898 15.0057347,123.077898 C15.0906531,123.077898 15.1922449,123.039898 15.2511837,122.98251 L16.6552449,121.608694 C16.832449,121.433041 16.9053469,121.360143 15.7979184,119.03051 L15.7572041,118.944429 L16.1038571,118.120449 L16.1872245,118.088653 C18.6560612,117.131286 18.6560612,117.037449 18.6560612,116.788898 L18.6560612,114.851673 C18.6560612,114.60351 18.6560612,114.500367 16.1856735,113.618612 L16.1856735,113.618612 Z M9.32744898,119.004918 C7.55967347,119.004918 6.12226531,117.594653 6.12226531,115.862163 C6.12226531,114.129286 7.55967347,112.720571 9.32744898,112.720571 C11.0948367,112.720571 12.5322449,114.130837 12.5322449,115.862163 C12.5322449,117.594653 11.0948367,119.004918 9.32744898,119.004918 L9.32744898,119.004918 Z" id="configuration-icon"></path>
        </g>
    </g>
</svg>