<?xml version="1.0" encoding="UTF-8" standalone="no"?>
<svg width="19px" height="22px" viewBox="0 0 19 22" version="1.1" xmlns="http://www.w3.org/2000/svg" xmlns:xlink="http://www.w3.org/1999/xlink">
    <!-- Generator: Sketch 39.1 (31720) - http://www.bohemiancoding.com/sketch -->
    <title>developer-icon</title>
    <desc>Created with Sketch.</desc>
    <defs></defs>
    <g id="Symbols" stroke="none" stroke-width="1" fill="none" fill-rule="evenodd">
        <g id="menu" transform="translate(0.000000, -362.000000)" fill="#FFFFFF">
            <g id="developer-icon" transform="translate(0.000000, 362.000000)">
                <path d="M17.33,2.96042857 L16.0033333,2.96042857 L16.0033333,1.6445 C16.0033333,0.918357143 15.4033333,0.328571429 14.6683333,0.328571429 L1.335,0.328571429 C0.598333333,0.328571429 0,0.918357143 0,1.6445 L0,17.411 C0,18.1371429 0.598333333,18.7269286 1.335,18.7269286 L2.67,18.7269286 L2.67,20.0428571 C2.67,20.7673571 3.26166667,21.3587857 3.99666667,21.3587857 L17.33,21.3587857 C18.0666667,21.3587857 18.665,20.7673571 18.665,20.0428571 L18.665,4.26814286 C18.665,3.54364286 18.0666667,2.96042857 17.33,2.96042857 L17.33,2.96042857 Z M1.335,17.411 L14.6683333,17.411 L14.6683333,1.6445 L1.335,1.6445 L1.335,17.411 Z M17.33,20.0428571 L3.99666667,20.0428571 L3.99666667,18.7269286 L14.6683333,18.7269286 C15.4033333,18.7269286 16.0033333,18.1371429 16.0033333,17.411 L16.0033333,4.26814286 L17.33,4.26814286 L17.33,20.0428571 Z" id="Fill-1"></path>
                <path d="M12.67,4.26814286 L6.00333333,4.26814286 C5.63166667,4.26814286 5.33166667,4.56385714 5.33166667,4.93021429 C5.33166667,5.29 5.63166667,5.58407143 6.00333333,5.58407143 L12.67,5.58407143 C13.0333333,5.58407143 13.3333333,5.29 13.3333333,4.93021429 C13.3333333,4.56385714 13.0333333,4.26814286 12.67,4.26814286 L12.67,4.26814286 Z" id="Fill-2"></path>
                <path d="M12.67,8.21592857 L3.33333333,8.21592857 C2.96166667,8.21592857 2.67,8.51 2.67,8.86978571 C2.67,9.23614286 2.96166667,9.53185714 3.33333333,9.53185714 L12.67,9.53185714 C13.0333333,9.53185714 13.3333333,9.23614286 13.3333333,8.86978571 C13.3333333,8.51 13.0333333,8.21592857 12.67,8.21592857 L12.67,8.21592857 Z" id="Fill-3"></path>
                <path d="M12.67,10.8395714 L3.33333333,10.8395714 C2.96166667,10.8395714 2.67,11.1352857 2.67,11.5016429 C2.67,11.8614286 2.96166667,12.1555 3.33333333,12.1555 L12.67,12.1555 C13.0333333,12.1555 13.3333333,11.8614286 13.3333333,11.5016429 C13.3333333,11.1352857 13.0333333,10.8395714 12.67,10.8395714 L12.67,10.8395714 Z" id="Fill-4"></path>
                <path d="M12.67,13.4714286 L3.33333333,13.4714286 C2.96166667,13.4714286 2.67,13.7671429 2.67,14.1252857 C2.67,14.4916429 2.96166667,14.7873571 3.33333333,14.7873571 L12.67,14.7873571 C13.0333333,14.7873571 13.3333333,14.4916429 13.3333333,14.1252857 C13.3333333,13.7671429 13.0333333,13.4714286 12.67,13.4714286 L12.67,13.4714286 Z" id="Fill-5"></path>
            </g>
        </g>
    </g>
</svg>