<?xml version="1.0" encoding="UTF-8" standalone="no"?>
<svg width="19px" height="19px" viewBox="0 0 19 19" version="1.1" xmlns="http://www.w3.org/2000/svg" xmlns:xlink="http://www.w3.org/1999/xlink">
    <!-- Generator: Sketch 39.1 (31720) - http://www.bohemiancoding.com/sketch -->
    <title>support-icon</title>
    <desc>Created with Sketch.</desc>
    <defs></defs>
    <g id="Symbols" stroke="none" stroke-width="1" fill="none" fill-rule="evenodd">
        <g id="menu" transform="translate(0.000000, -410.000000)" fill="#FFFFFF">
            <path d="M9.5,410 C4.25499575,410 0,414.265516 0,419.5 C0,424.734484 4.2655155,429 9.5,429 C14.7344845,429 19,424.734484 19,419.5 C18.9999628,414.254996 14.7450042,410 9.5,410 L9.5,410 Z M15.9983038,414.444574 L13.2388963,417.203982 C12.9018555,416.656323 12.448986,416.192897 11.9223667,415.845336 L14.6712545,413.096448 C15.1662773,413.486125 15.6086271,413.949551 15.9983038,414.444574 L15.9983038,414.444574 Z M9.5,422.628045 C7.77271713,422.628045 6.3719553,421.227283 6.3719553,419.5 C6.3719553,417.772717 7.77271713,416.371955 9.5,416.371955 C11.2272829,416.371955 12.6280447,417.772717 12.6280447,419.5 C12.6280447,421.227283 11.2272457,422.628045 9.5,422.628045 L9.5,422.628045 Z M13.6075334,412.369731 L10.7006636,415.276601 C10.3215067,415.171292 9.92127309,415.108099 9.5,415.108099 C9.05765024,415.108099 8.62582024,415.171292 8.21506689,415.297677 L5.31871681,412.401327 C6.55097685,411.67461 7.97281535,411.263856 9.49996283,411.263856 C10.9955511,411.263856 12.3963129,411.66409 13.6075334,412.369731 L13.6075334,412.369731 Z M4.2655155,413.138564 L7.01440327,415.887452 C6.48778403,416.245532 6.04543427,416.719479 5.71895041,417.277694 L2.9595429,414.50773 C3.33869983,414.002224 3.78104959,413.538798 4.2655155,413.138564 L4.2655155,413.138564 Z M2.25386494,415.592565 L5.21340783,418.552108 C5.15021501,418.857552 5.10809885,419.173516 5.10809885,419.5 C5.10809885,419.921273 5.17129168,420.321507 5.27660066,420.700664 L2.36973083,423.607533 C1.66409004,422.396313 1.26385644,420.995551 1.26385644,419.5 C1.26385644,418.088681 1.62193671,416.751112 2.25386494,415.592565 L2.25386494,415.592565 Z M3.09644829,424.671255 L5.83481631,421.922367 C6.19289658,422.448986 6.656323,422.901855 7.19346199,423.238896 L4.44457422,425.998304 C3.94955139,425.608627 3.48612497,425.166277 3.09644829,424.671255 L3.09644829,424.671255 Z M5.5188522,426.714501 L8.44679869,423.786555 C8.45731843,423.776035 8.45731843,423.765478 8.46787535,423.765478 C8.80491613,423.849748 9.15247665,423.891864 9.51055692,423.891864 C9.83704078,423.891864 10.1530049,423.849748 10.4584493,423.786555 L10.4584493,423.786555 L13.4179922,426.746098 C12.2489249,427.378026 10.9218757,427.736106 9.51055692,427.736106 C8.05708483,427.736106 6.69843916,427.367506 5.5188522,426.714501 L5.5188522,426.714501 Z M14.492233,426.040457 L11.7222685,423.270493 C12.2699273,422.944009 12.7438734,422.501659 13.1125106,421.97504 L15.8613984,424.723928 C15.4611648,425.21895 14.9977755,425.6613 14.492233,426.040457 L14.492233,426.040457 Z M16.5986356,423.681246 L13.7022855,420.784896 C13.8286712,420.374143 13.891864,419.95287 13.891864,419.499963 C13.891864,419.141883 13.8497478,418.794322 13.7654783,418.467801 L16.7144643,415.518815 C17.3674692,416.698402 17.7466261,418.057048 17.7466261,419.499963 C17.7361064,421.027147 17.325353,422.448986 16.5986356,423.681246 L16.5986356,423.681246 Z" id="support-icon"></path>
        </g>
    </g>
</svg>