<?xml version="1.0" encoding="UTF-8" standalone="no"?>
<svg width="20px" height="18px" viewBox="0 0 20 18" version="1.1" xmlns="http://www.w3.org/2000/svg" xmlns:xlink="http://www.w3.org/1999/xlink">
    <!-- Generator: Sketch 39.1 (31720) - http://www.bohemiancoding.com/sketch -->
    <title>webhooks-icon</title>
    <desc>Created with Sketch.</desc>
    <defs></defs>
    <g id="Symbols" stroke="none" stroke-width="1" fill="none" fill-rule="evenodd">
        <g id="menu" transform="translate(0.000000, -152.000000)" fill="#FFFFFF">
            <g id="webhooks-icon" transform="translate(0.000000, 152.000000)">
                <path d="M14.3417868,12.3498828 C14.7169987,12.3501495 15.0237721,12.6574563 15.0234521,13.0327216 C15.0231854,13.4079336 14.7158786,13.714707 14.3406132,13.7143869 C13.9654013,13.7141202 13.6586812,13.4068134 13.6589479,13.0315481 C13.6592146,12.6563361 13.9665215,12.349616 14.3417868,12.3498828 M12.4383088,13.7895467 C12.6573336,14.3232395 13.0305719,14.7112004 13.5644782,14.9255844 C14.2099772,15.1847228 14.8425139,15.1332472 15.4329634,14.7617692 C15.9860196,14.4138687 16.306022,13.9034865 16.3746739,13.2537734 C16.44786,12.5609062 16.2212072,11.9675229 15.6996231,11.5040289 C15.1717446,11.0349339 14.5484361,10.8797602 13.8633568,11.0436821 C13.1804647,11.2070705 12.7068356,11.6321578 12.4373487,12.2808574 C12.4157449,12.3328665 12.3927542,12.3505762 12.3361577,12.3505229 C10.9929906,12.3487626 9.6498235,12.349136 8.30665639,12.349136 L8.20813258,12.349136 C8.20813258,12.4376314 8.21170654,12.5172719 8.20754581,12.5964857 C8.19095626,12.9098736 8.1906362,13.2255552 8.15004247,13.5359025 C8.06506768,14.185989 7.80555585,14.770144 7.36633274,15.254975 C6.42915629,16.2893951 5.26463361,16.6686077 3.90813086,16.3279618 C2.04711362,15.8606271 0.952309744,13.9079673 1.50867324,12.0688205 C1.86814914,10.8806671 2.667915,10.1135469 3.85196108,9.74697641 C3.97086177,9.71017 4.09408322,9.68755273 4.22365244,9.6563473 C4.13878433,9.21280344 4.05391623,8.76952629 3.96915481,8.32640917 C2.05175443,8.62294078 0.120911711,10.2997126 0.00489151801,12.8367942 C-0.100353466,15.137888 1.49907157,17.3081857 3.96344715,17.740421 C5.10679281,17.9409359 6.19194167,17.7477822 7.19046213,17.1554125 C8.50050347,16.3782639 9.25727518,15.2149681 9.51508005,13.7175875 L12.4100906,13.7175875 C12.4200656,13.7430852 12.4288138,13.7664493 12.4383088,13.7895467" id="Fill-1"></path>
                <path d="M9.55648459,5.51856581 C9.18159267,5.51675216 8.87620619,5.20789841 8.87801984,4.83247307 C8.87988683,4.45758115 9.18868724,4.15219467 9.56411258,4.15406166 C9.9390045,4.15587531 10.244391,4.46472906 10.2425773,4.84010106 C10.2407103,5.21499297 9.93190993,5.52037946 9.55648459,5.51856581 M18.7530719,11.1939536 C18.3189696,10.1495051 17.5976708,9.35059275 16.5992037,8.82116728 C15.2890023,8.12643303 13.9328196,8.0778379 12.5434044,8.59563469 C12.0507854,7.80680406 11.5573662,7.01669322 11.0643204,6.22727582 C11.077816,6.21164644 11.0867242,6.20140465 11.0955791,6.19105619 C11.5514451,5.65528294 11.7068855,5.04146944 11.5498982,4.3575104 C11.4297173,3.83373924 11.1340392,3.42140081 10.6855344,3.12604274 C10.2478582,2.83783258 9.76532093,2.73344107 9.24619058,2.81409511 C8.71415132,2.89672283 8.27887556,3.15170054 7.94868476,3.5749742 C7.58616833,4.03974843 7.4498246,4.56928059 7.53858672,5.15274214 C7.61764047,5.6725126 7.86648378,6.10005368 8.27370133,6.42880423 C8.71367123,6.78406606 9.22154629,6.92878458 9.78457762,6.87080116 C9.84005394,6.8650935 9.86443152,6.88339002 9.89136954,6.92665088 C10.5964523,8.05783442 11.3028685,9.18821783 12.0092315,10.3186012 C12.0231539,10.3408984 12.03889,10.3620755 12.0547861,10.3851728 C12.282399,10.2631782 12.5040909,10.1427306 12.7271698,10.0250035 C13.5068255,9.61351851 14.3270215,9.51046058 15.1812502,9.72367102 C17.0064745,10.1793237 18.1117869,12.0400742 17.6511734,13.8714329 C17.2476365,15.4759788 15.7451884,16.5575004 14.0882066,16.4352925 C13.3323418,16.3794961 12.6692397,16.099394 12.0976735,15.603201 C11.9881611,15.5081978 11.8871302,15.4034329 11.7798582,15.3009617 C11.4519612,15.6099222 11.1241708,15.9188293 10.7925397,16.2313103 C12.2650627,17.8805573 14.7848079,18.3465585 16.809747,17.1253859 C18.8303653,15.9068805 19.6715784,13.4038315 18.7530719,11.1939536" id="Fill-4"></path>
                <path d="M4.77469768,13.7143922 C4.3998591,13.7121519 4.09489936,13.4029247 4.09713975,13.027446 C4.09938014,12.6526074 4.40860729,12.3476477 4.78408598,12.3498881 C5.15892455,12.3521285 5.46393763,12.6613556 5.4616439,13.0368343 C5.45940351,13.4116729 5.15017636,13.7166326 4.77469768,13.7143922 M6.41583664,8.44190127 C6.40884876,8.45561032 6.40191422,8.46969277 6.39449959,8.48356185 C5.95383623,9.30503816 5.51279947,10.1263011 5.0736297,10.9486309 C5.0512258,10.9905582 5.02711494,10.9993064 4.98294725,10.995039 C4.51646607,10.9504445 4.08081691,11.0474748 3.68672165,11.3014923 C3.13750607,11.6554739 2.81446318,12.1610019 2.74591791,12.8107683 C2.67278518,13.5035822 2.89949131,14.0969655 3.42112876,14.5604062 C3.94906065,15.0293944 4.57338264,15.1883021 5.25723499,15.0197928 C6.02872927,14.8296263 6.53975154,14.3353003 6.75141505,13.5693537 C6.94712911,12.8610704 6.78320725,12.2190387 6.29954974,11.6630486 C6.26690405,11.6254954 6.27186492,11.6011178 6.29256185,11.5627111 C6.80625126,10.6075048 7.31871378,9.65171183 7.83144302,8.6960255 C7.94735653,8.47988121 8.06332338,8.26379027 8.18185067,8.04289849 C7.97770848,7.89828665 7.77943397,7.76108944 7.58452004,7.61919808 C6.78800808,7.03915046 6.31320545,6.26098836 6.17675503,5.28567194 C6.08436562,4.62539702 6.18913052,3.99035317 6.46955266,3.38358089 C7.08790028,2.04558802 8.56346376,1.24171478 10.0217442,1.45284486 C10.876293,1.57659973 11.5959382,1.95789276 12.1518216,2.61811434 C12.8886432,3.49330666 13.1235107,4.5005753 12.8829889,5.61820982 C12.8564243,5.74175132 12.8167907,5.86251901 12.7819046,5.98942109 C13.2128063,6.13200591 13.6408274,6.27363056 14.0685819,6.41514852 C14.7514741,4.53434118 14.1723866,2.07289944 12.0639663,0.765151837 C10.0998378,-0.4531402 7.47111364,-0.0975583128 5.90796158,1.7545507 C5.15556396,2.64595918 4.77453765,3.68304635 4.78269907,4.84868922 C4.79272748,6.2830722 5.35634558,7.47629321 6.41583664,8.44190127" id="Fill-6"></path>
            </g>
        </g>
    </g>
</svg>