<?xml version="1.0" encoding="UTF-8" standalone="no"?>
<svg width="21px" height="21px" viewBox="0 0 21 21" version="1.1" xmlns="http://www.w3.org/2000/svg" xmlns:xlink="http://www.w3.org/1999/xlink">
    <!-- Generator: Sketch 39.1 (31720) - http://www.bohemiancoding.com/sketch -->
    <title>icon-devdocs</title>
    <desc>Created with Sketch.</desc>
    <defs></defs>
    <g id="Symbols" stroke="none" stroke-width="1" fill="none" fill-rule="evenodd">
        <g id="icon-devdocs" fill="#FFFFFF">
            <path d="M6,16 L6,18.0616828 C6,18.5831586 6.44882258,19 7.00247329,19 L16.9975267,19 C17.544239,19 18,18.5799011 18,18.0616828 L18,4.93831718 C18,4.41684143 17.5511774,4 16.9975267,4 L15,4 L15,5.00013507 C16.1754747,5.00027915 17,5.00055685 17,5.00105247 C17,5.00105247 16.9957712,17.9997569 16.9975267,17.9997569 C16.9975267,17.9997569 7,18.0006733 7,17.9989475 C7,17.9989475 7.00025967,17.2007743 7.0006236,16 L6,16 Z" id="Combined-Shape"></path>
            <path d="M4.00907806,15.9979276 C4.00907806,16.0020591 8.02094163,15.9987369 8.02094163,15.9987369 L13.9991698,15.9987369 C13.9997651,15.9987369 13.9998689,3.00105239 13.9998689,3.00105239 C13.9998689,2.99932672 4.01154908,3.00024309 4.01154908,3.00024309 C4.01330299,3.00024309 4.00907806,15.9979276 4.00907806,15.9979276 Z M4.00247329,2 L13.9975267,2 C14.5511774,2 15,2.41684143 15,2.93831718 L15,16.0616828 C15,16.5799011 14.5524671,17 13.9993003,17 L8.01556157,17 L3.99091357,17 C3.44364712,17 3,16.5831586 3,16.0616828 L3,2.93831718 C3,2.42009891 3.45576096,2 4.00247329,2 Z" id="Rectangle-2"></path>
            <rect id="Rectangle" x="5" y="5" width="5" height="1" rx="0.5"></rect>
            <rect id="Rectangle-Copy" x="5" y="8" width="8" height="1" rx="0.5"></rect>
            <rect id="Rectangle-Copy-2" x="5" y="10" width="8" height="1" rx="0.5"></rect>
            <rect id="Rectangle-Copy-3" x="5" y="12" width="8" height="1" rx="0.5"></rect>
        </g>
    </g>
</svg>