<?xml version="1.0" encoding="UTF-8" standalone="no"?>
<svg width="21px" height="21px" viewBox="0 0 21 21" version="1.1" xmlns="http://www.w3.org/2000/svg" xmlns:xlink="http://www.w3.org/1999/xlink">
    <!-- Generator: Sketch 39.1 (31720) - http://www.bohemiancoding.com/sketch -->
    <title>icon-billing</title>
    <desc>Created with Sketch.</desc>
    <defs></defs>
    <g id="Symbols" stroke="none" stroke-width="1" fill="none" fill-rule="evenodd">
        <g id="icon-billing" fill="#FFFFFF">
            <path d="M2.54178852,3 C1.68995172,3 1,3.79630442 1,4.77944772 L1,9.5625 L1,10.5 L1,16.2205523 C1,17.2036956 1.68995172,18 2.54178852,18 L18.4582115,18 C19.3100483,18 20,17.2036956 20,16.2205523 L20,4.77702939 C19.9979047,3.79630442 19.3079141,3 18.4582115,3 L2.54178852,3 Z M2,7 L19,7 L19,5 L2,5 L2,7 Z M18.3218688,17 L2.67813124,17 C2.31597308,17 2,16.6257524 2,16.1334162 L2,9 L19,9 L19,16.1067573 C19,16.596218 18.7048884,17 18.3218688,17 L18.3218688,17 Z M18,11.5012117 C18,11.7788056 17.7904483,12 17.5272986,12 L12.4728347,12 C12.2096849,12 12,11.7788056 12,11.5012117 C12,11.2236179 12.2096849,11.0024234 12.4728347,11.0024234 L17.500433,11.0024234 C17.7637603,10.9742237 18,11.1952776 18,11.5012117 L18,11.5012117 Z M18,14.5000704 C18,14.7783779 17.7817602,15 17.5077001,15 L14.4924386,15 C14.2181936,15 14,14.7783779 14,14.5000704 C14,14.2216221 14.2181936,14 14.4924386,14 L17.5077001,14 C17.7539657,14 18,14.2216221 18,14.5000704 L18,14.5000704 Z" id="billing-icon"></path>
        </g>
    </g>
</svg>