<?xml version="1.0" encoding="UTF-8" standalone="no"?>
<svg width="21px" height="21px" viewBox="0 0 21 21" version="1.1" xmlns="http://www.w3.org/2000/svg" xmlns:xlink="http://www.w3.org/1999/xlink">
    <!-- Generator: Sketch 39.1 (31720) - http://www.bohemiancoding.com/sketch -->
    <title>icon-analytics</title>
    <desc>Created with Sketch.</desc>
    <defs></defs>
    <g id="Symbols" stroke="none" stroke-width="1" fill="none" fill-rule="evenodd">
        <g id="icon-analytics" fill="#FFFFFF">
            <path d="M3.12990019,17.8700998 L3.12990019,3.5652085 C3.12990019,3.24823695 2.88218004,3 2.5652085,3 C2.24823695,3 2,3.24823695 2,3.5652085 L2,18.4354806 C2,18.7522798 2.24823695,19 2.5652085,19 L18.4354806,19 C18.7522798,19 19,18.7522798 19,18.4354806 C19,18.118509 18.7522798,17.8700998 18.4354806,17.8700998 L3.12990019,17.8700998 Z M8,15.4507459 L8,7.54925412 C8,7.24139727 7.78026837,7 7.49969503,7 C7.21912168,7 7,7.24139727 7,7.54925412 L7,15.4507459 C7,15.7587701 7.21912168,16 7.49969503,16 C7.78026837,16 8,15.7587701 8,15.4507459 Z M6,15.4507459 L6,7.54925412 C6,7.24139727 5.78026837,7 5.49969503,7 C5.21912168,7 5,7.24139727 5,7.54925412 L5,15.4507459 C5,15.7587701 5.21912168,16 5.49969503,16 C5.78026837,16 6,15.7587701 6,15.4507459 Z M12,15.5728024 L12,9.42719765 C12,9.18775343 11.7803019,9 11.4997713,9 C11.2192407,9 11,9.18775343 11,9.42719765 L11,15.5728024 C11,15.8123768 11.2192407,16 11.4997713,16 C11.7803019,16 12,15.8123768 12,15.5728024 Z M16,15.5117741 L16,8.48822588 C16,8.21457535 15.7803019,8 15.4997713,8 C15.2192407,8 15,8.21457535 15,8.48822588 L15,15.5117741 C15,15.7855735 15.2192407,16 15.4997713,16 C15.7803019,16 16,15.7855735 16,15.5117741 Z M18,15.5117741 L18,8.48822588 C18,8.21457535 17.7803019,8 17.4997713,8 C17.2192407,8 17,8.21457535 17,8.48822588 L17,15.5117741 C17,15.7855735 17.2192407,16 17.4997713,16 C17.7803019,16 18,15.7855735 18,15.5117741 Z M14,15.4560676 L14,11.5432692 C14,11.2382294 13.7801494,11 13.4997713,11 C13.2192407,11 13,11.2382294 13,11.5432692 L13,15.4560676 C13,15.7611074 13.2192407,16 13.4997713,16 C13.7801494,16 14,15.7611074 14,15.4560676 Z M10,15.4560676 L10,11.5432692 C10,11.2382294 9.78026837,11 9.49969503,11 C9.21912168,11 9,11.2382294 9,11.5432692 L9,15.4560676 C9,15.7611074 9.21912168,16 9.49969503,16 C9.78026837,16 10,15.7611074 10,15.4560676 Z" id="analytics-icon"></path>
        </g>
    </g>
</svg>