<?xml version="1.0" encoding="UTF-8" standalone="no"?>
<svg width="21px" height="21px" viewBox="0 0 21 21" version="1.1" xmlns="http://www.w3.org/2000/svg" xmlns:xlink="http://www.w3.org/1999/xlink">
    <!-- Generator: Sketch 39.1 (31720) - http://www.bohemiancoding.com/sketch -->
    <title>icon-configuration</title>
    <desc>Created with Sketch.</desc>
    <defs></defs>
    <g id="Symbols" stroke="none" stroke-width="1" fill="none" fill-rule="evenodd">
        <g id="icon-configuration" fill="#FFFFFF">
            <path d="M17.1839367,7.75535707 L17.0035721,8.27103442 L17.4987475,8.0591458 L17.1652883,7.24923449 L16.6701129,7.46112311 L17.1603097,7.68471969 L17.1968226,7.60152524 C18.219675,5.23914397 18.3164487,4.89868962 17.8853075,4.44591182 C17.8694294,4.42944506 16.5081671,3.07583785 16.5081671,3.07583785 C16.3548154,2.91941855 16.121905,2.82533951 15.8988721,2.82533951 C15.598892,2.82533951 15.0259951,3.03387613 13.3835873,3.79271935 L13.3080913,3.82699977 L13.5266545,4.32708545 L13.7272547,3.81923599 L12.9064608,3.48227945 L12.7058605,3.99012891 L13.2057356,3.79003746 L13.1736937,3.706843 C12.2947046,1.49083817 12.1081587,1.12716991 11.6168724,1.01897474 C11.5417713,1.00243536 11.496527,1 11.4103995,1 L9.50949577,1 C9.4232752,1 9.37772393,1.00247063 9.30231232,1.0191705 C8.80057207,1.13028069 8.60530222,1.52943781 7.80296467,3.71997881 L7.77359999,3.79481814 L8.2725298,3.9973467 L8.06988778,3.49034042 L7.25505507,3.82881649 L7.4576971,4.33582277 L7.660414,3.82884759 L7.58179959,3.79617762 C6.12993682,3.17160977 5.36027153,2.88460132 5.04449572,2.88460132 C4.82271181,2.88460132 4.5889722,2.97630438 4.43017226,3.13713042 L3.08586494,4.47517026 C2.61101555,4.95611982 2.70582782,5.28514636 3.79658122,7.63034119 L3.83668782,7.71598898 L4.32131772,7.48011728 L3.8264392,7.267509 L3.49148968,8.07780019 L3.9863682,8.29040847 L3.79803487,7.77770037 L3.71643983,7.8088508 C1.5004681,8.68236074 1.14562937,8.86225335 1.02450395,9.35200823 C1.00313857,9.43839634 1,9.49047224 1,9.58884978 L1,11.4882665 C1,11.5918238 1.00355638,11.6470385 1.02763735,11.7381965 C1.15764129,12.2303239 1.54441258,12.4168074 3.72934238,13.2161569 L3.82077501,13.2482431 L3.99531013,12.7304851 L3.50029599,12.942765 L3.83338261,13.7500172 L4.32839675,13.5377372 L3.8352502,13.3209867 L3.80022767,13.4038013 C2.7712662,15.7826887 2.68144071,16.0925189 3.10760707,16.546529 C3.12608781,16.5659173 4.4888473,17.9237864 4.4888473,17.9237864 C4.64549127,18.0802642 4.87864022,18.1746605 5.09963758,18.1746605 C5.39911083,18.1746605 5.97046291,17.9669382 7.61485292,17.2090042 L7.70411883,17.1655827 L7.47222773,16.6717749 L7.27104413,17.1793845 L8.09183812,17.5174806 L8.29302171,17.0098711 L7.79314665,17.2099625 L7.82518854,17.293157 C8.70305294,19.5072057 8.8919601,19.8746452 9.38548811,19.9815581 C9.45968288,19.9976309 9.50440689,20 9.5896005,20 L11.4905042,20 C11.5880247,20 11.6396555,19.9967639 11.7249833,19.9748443 C12.2106527,19.8500819 12.3979969,19.4617514 13.1984593,17.2786828 L13.2293939,17.1958223 L12.7274702,17.0011338 L12.9289357,17.5086271 L13.7456313,17.1716706 L13.5441658,16.6641772 L13.3414489,17.1711524 L13.4200633,17.2038224 C14.8634418,17.8272458 15.6387747,18.1169182 15.9555043,18.1169182 C16.1748768,18.1169182 16.4072106,18.0258686 16.5660123,17.868215 L17.9160645,16.5213531 C18.3907012,16.0416647 18.2967465,15.717908 17.2017127,13.3691955 L17.1630413,13.2858279 L16.6775645,13.5198827 L17.1725787,13.7321626 L17.5056653,12.9249105 L17.0106512,12.7126306 L17.2020469,13.2241587 L17.2821516,13.1930083 C19.4979248,12.3169407 19.8535983,12.1362312 19.9752458,11.6465071 C19.9968282,11.5596214 20,11.5072123 20,11.4081112 L20,9.51021392 C20,9.40654622 19.9964255,9.35122955 19.9722254,9.25991002 C19.8418028,8.76775729 19.4537706,8.58137363 17.2698133,7.78657411 L17.1839367,7.75535707 Z M18.7124919,9.55445694 C18.8827896,9.63648441 18.898661,9.64942415 18.87212,9.54899138 C18.8633986,9.51598933 18.8627915,11.4028339 18.8627915,11.4028339 C18.8956053,11.2726088 18.8796294,11.2861354 18.7081733,11.3734913 C18.3955357,11.5327786 17.8294185,11.7732932 16.8486049,12.1621715 L16.7718672,12.1920869 L16.5589006,12.2751346 L16.4705212,12.4899243 L16.1399275,13.2933709 L16.0476448,13.5176468 L16.1493935,13.7376015 L16.1882216,13.8215381 C16.6950171,14.9115883 16.9427901,15.4961418 17.0271809,15.7877539 C17.0535845,15.8789917 17.0809491,15.7474502 17.1124157,15.7155588 L15.7758654,17.0526583 C15.8236898,17.0050449 15.861418,16.9902183 15.9145806,16.9902183 C15.821566,16.9902183 15.016045,16.6884273 13.807229,16.1649053 L13.722489,16.1295367 L13.5220128,16.0459918 L13.3213317,16.1290209 L12.5107485,16.464389 L12.2952213,16.5535605 L12.212539,16.7757192 L12.1807369,16.8611681 C11.8247945,17.8345984 11.5998763,18.4035517 11.4490243,18.7171133 C11.3681322,18.8852558 11.3582277,18.8974118 11.4552469,18.8724192 C11.4844596,18.8648939 9.59632123,18.8644229 9.59632123,18.8644229 C9.71546794,18.8916266 9.71014952,18.8854975 9.62601019,18.7213831 C9.46680726,18.4108565 9.22433703,17.8403916 8.83540964,16.8567784 L8.80558028,16.7790379 L8.72176197,16.5608023 L8.50912431,16.4729695 L7.6944734,16.1364671 L7.47659464,16.0464694 L7.26463996,16.1502039 L7.18661393,16.1883912 C6.32595183,16.5860526 5.74062773,16.8363744 5.3871098,16.965259 C5.18922552,17.0374031 5.1439954,17.0476884 5.13996257,17.0476884 C5.19601427,17.0476884 5.23336217,17.0628518 5.27929463,17.1088634 L3.94381721,15.7748012 C3.99403979,15.8287452 4.00376894,15.9235593 4.04044751,15.7966927 C4.12959951,15.4883272 4.36218727,14.9033297 4.82743232,13.8246925 L4.86394963,13.7381492 L4.95381961,13.5250487 L4.86580324,13.3111413 L4.53520954,12.5076947 L4.44271832,12.282912 L4.21712909,12.2036567 L4.13318639,12.1741655 C3.17160252,11.8213383 2.60281735,11.5955744 2.28785217,11.4432887 C2.1173505,11.3608511 2.10139261,11.3478056 2.12777871,11.4479684 C2.13642481,11.4807894 2.1370225,9.5921488 2.1370225,9.5921488 C2.10409222,9.72382576 2.11936546,9.71090656 2.2896751,9.6243237 C2.60171317,9.46568822 3.1671557,9.22610651 4.14627194,8.83905846 L4.22194903,8.8101197 L4.43701643,8.72778454 L4.52619994,8.5114346 L4.8586426,7.70496327 L4.95160538,7.47944522 L4.84847069,7.2585975 L4.80927278,7.17466096 C4.30507114,6.08756262 4.05762832,5.50168078 3.97361514,5.20931658 C3.94721473,5.11744364 3.91988334,5.24793057 3.88929462,5.27900063 L5.22351278,3.94729694 C5.17791293,3.9936363 5.13809552,4.00930146 5.08523341,4.00930146 C5.17771513,4.00930146 5.98099073,4.30967923 7.19513995,4.83340723 L7.27917395,4.86847072 L7.48033032,4.95229905 L7.68149904,4.86850168 L8.49023329,4.53162125 L8.70036459,4.44409049 L8.78430357,4.22857889 L8.81758482,4.14312998 C9.17793648,3.15691456 9.40617828,2.58203591 9.55874331,2.26930262 C9.63732045,2.10823238 9.64000672,2.10505838 9.53746761,2.127829 C9.5128914,2.13328658 11.4034928,2.1335845 11.4034928,2.1335845 C11.2831285,2.10576977 11.2891523,2.11275071 11.3733594,2.27736934 C11.5321915,2.58787425 11.7741785,3.15752915 12.1633227,4.14129894 L12.1931244,4.21896952 L12.277078,4.43755728 L12.4901594,4.5252767 L13.3048103,4.86064476 L13.5144257,4.94693731 L13.7208366,4.85291758 L13.7988626,4.81737688 C14.6722492,4.41273109 15.2573971,4.16200733 15.6111866,4.03286719 C15.8090213,3.96065365 15.8544392,3.95031903 15.8583723,3.95031903 C15.8026953,3.95031903 15.7613398,3.93356774 15.7140526,3.88521908 L17.0548924,5.22206778 C17.0043365,5.16859747 16.9932197,5.0714419 16.9579627,5.19582405 C16.8698409,5.50670584 16.6352331,6.09980877 16.1724628,7.1716147 L16.1373129,7.25191013 L16.0429433,7.46753129 L16.1323716,7.68534238 L16.4633351,8.49143562 L16.554331,8.71306506 L16.7757897,8.79379223 L16.8608418,8.82479582 C17.8284641,9.1779219 18.3974129,9.40269253 18.7124919,9.55445694 Z M7.70588235,10.4993709 C7.70588235,8.96173486 8.95678824,7.70588235 10.5002047,7.70588235 C12.0426438,7.70588235 13.2941176,8.96283835 13.2941176,10.4993709 C13.2941176,12.0370022 12.0428048,13.2941176 10.5002047,13.2941176 C8.95724786,13.2941176 7.70588235,12.0370543 7.70588235,10.4993709 Z M14.4117647,10.4993852 C14.4117647,8.34018945 12.6548568,6.58823529 10.5002015,6.58823529 C8.34469202,6.58823529 6.58823529,8.33899647 6.58823529,10.4993852 C6.58823529,12.6596592 8.3449928,14.4117647 10.5002015,14.4117647 C12.6550802,14.4117647 14.4117647,12.6595857 14.4117647,10.4993852 Z" id="configuration-icon"></path>
        </g>
    </g>
</svg>