<?xml version="1.0" encoding="UTF-8" standalone="no"?>
<svg width="21px" height="21px" viewBox="0 0 21 21" version="1.1" xmlns="http://www.w3.org/2000/svg" xmlns:xlink="http://www.w3.org/1999/xlink">
    <!-- Generator: Sketch 39.1 (31720) - http://www.bohemiancoding.com/sketch -->
    <title>icon-quickstart</title>
    <desc>Created with Sketch.</desc>
    <defs></defs>
    <g id="Symbols" stroke="none" stroke-width="1" fill="none" fill-rule="evenodd">
        <g id="icon-quickstart" fill="#FFFFFF">
            <path d="M19.0071908,10.0827997 L19.0072422,9.43358639 L12.2863358,16.0739085 L13.0868854,16.3985406 L13.0868854,12.41443 L13.0868854,12.0521949 L12.7286193,11.967005 C12.6476423,11.94775 12.5068784,11.9213579 12.3125922,11.8957593 C10.2186234,11.6198637 7.77581114,12.0590519 5.45334948,13.7824048 C4.22690668,14.692471 3.12299788,15.9190084 2.17030738,17.4922692 L3.03266514,17.6397787 C3.02299477,17.5909261 3.00680526,17.4872465 2.99007805,17.3348817 C2.80032913,15.6064979 3.09847868,13.5750923 4.27463322,11.644942 C4.81424758,10.7593978 5.51973204,9.94577409 6.40880059,9.21865495 C6.47274256,9.16092939 6.57613567,9.07853342 6.7403364,8.96741232 C7.02416877,8.77533177 7.37095613,8.58155812 7.78184871,8.39955551 C9.07261777,7.82781642 10.674716,7.50413831 12.6042366,7.56171784 L13.0868854,7.57612074 L13.0868854,7.10159351 L13.0868854,3.11582925 L12.2862844,3.44041053 L19.0071908,10.0827997 Z M12.1500235,2 L12.1500235,3.11582925 L12.1500235,7.10159351 L12.6326723,6.64146919 C10.5588436,6.5795833 8.81564018,6.93176944 7.39687292,7.56020462 C6.59839641,7.91388542 6.06574175,8.27435381 5.78913247,8.52866017 C4.83871986,9.30494136 4.06431357,10.1980515 3.47086588,11.1719398 C2.17546191,13.2977866 1.8488653,15.5230128 2.05862131,17.4336372 C2.0782719,17.6126304 2.09846019,17.7419186 2.11304168,17.8155811 L2.34749736,19 L2.97539945,17.9630905 C3.8670368,16.4906521 4.88990499,15.3541578 6.01789695,14.5171458 C8.11986747,12.9574055 10.3190899,12.5620118 12.1880973,12.8082671 C12.3491053,12.8294811 12.4580197,12.8499016 12.5082896,12.861855 L12.1500235,12.41443 L12.1500235,16.3985406 L12.1500235,17.5141236 L12.9505731,16.7231727 L19.6714795,10.0828505 L20,9.75826898 L19.6715309,9.43363719 L12.9506245,2.79124798 L12.1500235,2 Z" id="quickstart-icon"></path>
        </g>
    </g>
</svg>