<?xml version="1.0" encoding="UTF-8" standalone="no"?>
<svg width="19px" height="16px" viewBox="0 0 19 16" version="1.1" xmlns="http://www.w3.org/2000/svg" xmlns:xlink="http://www.w3.org/1999/xlink">
    <!-- Generator: Sketch 39.1 (31720) - http://www.bohemiancoding.com/sketch -->
    <title>sign-out-icon</title>
    <desc>Created with Sketch.</desc>
    <defs></defs>
    <g id="Symbols" stroke="none" stroke-width="1" fill="none" fill-rule="evenodd">
        <g id="header" transform="translate(-1405.000000, -42.000000)" fill="#404040">
            <g id="account" transform="translate(1285.000000, 36.000000)">
                <path d="M123.034741,14.8888889 L133.333037,14.8888889 C133.824074,14.8888889 134.221926,14.491037 134.221926,14 C134.221926,13.5092593 133.824074,13.1111111 133.333037,13.1111111 L123.034741,13.1111111 L124.184,11.9618519 C124.531259,11.6148889 124.531259,11.0520741 124.184,10.7048889 C123.837111,10.3576296 123.274,10.3576296 122.927111,10.7048889 L120.260444,13.3715556 C120.239556,13.3923704 120.219926,13.4140741 120.201407,13.436963 C120.193259,13.4467407 120.186074,13.4571852 120.178519,13.4673333 C120.168667,13.4803704 120.158593,13.493037 120.14963,13.5066667 C120.141185,13.5191111 120.134222,13.5318519 120.126444,13.5445926 C120.119185,13.5567407 120.111704,13.5685926 120.105037,13.5813333 C120.098074,13.5943704 120.092,13.6076296 120.085926,13.620963 C120.079556,13.634 120.073185,13.6467407 120.067704,13.66 C120.062222,13.673037 120.057852,13.6863704 120.053259,13.6994074 C120.048,13.7135556 120.042519,13.7277037 120.038222,13.7422222 C120.034444,13.7552593 120.031556,13.7685185 120.028074,13.7821481 C120.024296,13.7968889 120.020222,13.8113333 120.017333,13.8263704 C120.014148,13.8417037 120.012444,13.8573333 120.010148,13.872963 C120.00837,13.886 120.005778,13.899037 120.00437,13.9126667 C120.001704,13.9412593 120,13.9699259 120,13.9988889 L120,14 L120,14.0014815 C120,14.0303704 120.001704,14.059037 120.00437,14.088 C120.005778,14.100963 120.008074,14.114 120.010148,14.127037 C120.012444,14.1426667 120.014148,14.1582963 120.017333,14.1739259 C120.020222,14.1886667 120.024296,14.2031111 120.028074,14.2179259 C120.031556,14.2311852 120.034444,14.2448148 120.038519,14.2581481 C120.042815,14.2725926 120.048,14.2861481 120.053259,14.3003704 C120.057852,14.3137037 120.062222,14.326963 120.067704,14.3402963 C120.073185,14.3533333 120.079556,14.3657778 120.08563,14.3785185 C120.092,14.3920741 120.098074,14.4057037 120.105037,14.4192593 C120.111704,14.4314074 120.118889,14.4427407 120.126148,14.4545926 C120.133704,14.4676296 120.141185,14.4808889 120.149852,14.4936296 C120.158296,14.5066667 120.168148,14.5188148 120.177407,14.5312593 C120.185481,14.542 120.192963,14.5532593 120.201407,14.5637037 C120.219333,14.5851111 120.237852,14.6059259 120.257556,14.6256296 C120.258667,14.6267407 120.259259,14.6276296 120.260148,14.6287407 L122.926815,17.2954074 C123.100667,17.469037 123.328148,17.5558519 123.555556,17.5558519 C123.782963,17.5555556 124.010444,17.469037 124.184,17.2954074 C124.531259,16.9482222 124.531259,16.3854074 124.184,16.0385185 L123.034741,14.8888889 Z M138.074074,6 L126.814815,6 C126.324074,6 125.925926,6.39785185 125.925926,6.88888889 L125.925926,10.4444444 C125.925926,10.9354815 126.324074,11.3333333 126.814815,11.3333333 C127.305852,11.3333333 127.703704,10.9354815 127.703704,10.4444444 L127.703704,7.77777778 L137.185185,7.77777778 L137.185185,20.2222222 L127.703704,20.2222222 L127.703704,17.5555556 C127.703704,17.0645185 127.305852,16.6666667 126.814815,16.6666667 C126.324074,16.6666667 125.925926,17.0645185 125.925926,17.5555556 L125.925926,21.1111111 C125.925926,21.6021481 126.324074,22 126.814815,22 L138.074074,22 C138.565111,22 138.962963,21.6021481 138.962963,21.1111111 L138.962963,6.88888889 C138.962963,6.39785185 138.565111,6 138.074074,6 Z" id="sign-out-icon" transform="translate(129.481481, 14.000000) scale(-1, 1) translate(-129.481481, -14.000000) "></path>
            </g>
        </g>
    </g>
</svg>