<?xml version="1.0" encoding="UTF-8" standalone="no"?>
<svg width="21px" height="21px" viewBox="0 0 21 21" version="1.1" xmlns="http://www.w3.org/2000/svg" xmlns:xlink="http://www.w3.org/1999/xlink">
    <!-- Generator: Sketch 39.1 (31720) - http://www.bohemiancoding.com/sketch -->
    <title>icon-support</title>
    <desc>Created with Sketch.</desc>
    <defs></defs>
    <g id="Symbols" stroke="none" stroke-width="1" fill="none" fill-rule="evenodd">
        <g id="icon-support" fill="#FFFFFF">
            <path d="M10.5,2 C5.80710146,2 2,5.81651387 2,10.5 C2,15.1834861 5.81651387,19 10.5,19 C15.1834861,19 19,15.1834861 19,10.5 C18.9999667,5.80710146 15.1928985,2 10.5,2 L10.5,2 Z M16.3142718,5.9767243 L13.8453282,8.44566787 C13.5437654,7.95565742 13.1385664,7.54101273 12.6673808,7.23003752 L15.1269119,4.77050636 C15.5698271,5.11916445 15.9656137,5.53380914 16.3142718,5.9767243 L16.3142718,5.9767243 Z M10.5,13.2987768 C8.95453638,13.2987768 7.70122316,12.0454636 7.70122316,10.5 C7.70122316,8.95453638 8.95453638,7.70122316 10.5,7.70122316 C12.0454636,7.70122316 13.2987768,8.95453638 13.2987768,10.5 C13.2987768,12.0454636 12.0454304,13.2987768 10.5,13.2987768 L10.5,13.2987768 Z M14.1751615,4.12028548 L11.574278,6.72116901 C11.2350323,6.62694518 10.8769286,6.57040424 10.5,6.57040424 C10.1042134,6.57040424 9.71783916,6.62694518 9.35032301,6.74002708 L6.75885189,4.14855596 C7.86140034,3.49833507 9.13357163,3.13081892 10.4999667,3.13081892 C11.8381246,3.13081892 13.0914379,3.48892267 14.1751615,4.12028548 L14.1751615,4.12028548 Z M5.81651387,4.80818924 L8.27604503,7.2677204 C7.80485939,7.58810801 7.40907277,8.01216511 7.11695563,8.51162122 L4.64801207,6.03323199 C4.98725774,5.58093768 5.38304437,5.16629299 5.81651387,4.80818924 L5.81651387,4.80818924 Z M4.016616,7.00387374 L6.66462806,9.65188581 C6.60808712,9.92517813 6.57040424,10.2078829 6.57040424,10.5 C6.57040424,10.8769286 6.62694518,11.2350323 6.72116901,11.574278 L4.12028548,14.1751615 C3.48892267,13.0914379 3.13081892,11.8381246 3.13081892,10.5 C3.13081892,9.23724111 3.45120653,8.04046884 4.016616,7.00387374 L4.016616,7.00387374 Z M4.77050636,15.1269119 L7.22062512,12.6673808 C7.54101273,13.1385664 7.95565742,13.5437654 8.43625546,13.8453282 L5.9767243,16.3142718 C5.53380914,15.9656137 5.11916445,15.5698271 4.77050636,15.1269119 L4.77050636,15.1269119 Z M6.93792039,16.9550803 L9.55766198,14.3353387 C9.56707439,14.3259263 9.56707439,14.3164806 9.57652005,14.3164806 C9.87808285,14.3918796 10.1890581,14.4295625 10.5094457,14.4295625 C10.8015628,14.4295625 11.0842675,14.3918796 11.3575599,14.3353387 L11.3575599,14.3353387 L14.0055719,16.9833507 C12.9595644,17.5487602 11.7722045,17.8691478 10.5094457,17.8691478 C9.20897064,17.8691478 7.9933403,17.5393478 6.93792039,16.9550803 L6.93792039,16.9550803 Z M14.9667348,16.3519879 L12.4883455,13.8735987 C12.978356,13.5814816 13.4024131,13.1856949 13.7322463,12.7145093 L16.1917775,15.1740405 C15.8336738,15.6169556 15.4190623,16.0127423 14.9667348,16.3519879 L14.9667348,16.3519879 Z M16.8514108,14.2411149 L14.2599397,11.6496437 C14.3730216,11.2821276 14.4295625,10.905199 14.4295625,10.4999667 C14.4295625,10.1795791 14.3918796,9.86860393 14.3164806,9.57645353 L16.955047,6.93788713 C17.5393145,7.99330704 17.8785602,9.20893738 17.8785602,10.4999667 C17.8691478,11.8663951 17.5016317,13.1385664 16.8514108,14.2411149 L16.8514108,14.2411149 Z" id="support-icon"></path>
        </g>
    </g>
</svg>