<?xml version="1.0" encoding="UTF-8" standalone="no"?>
<svg width="203px" height="58px" viewBox="0 0 203 58" version="1.1" xmlns="http://www.w3.org/2000/svg" xmlns:xlink="http://www.w3.org/1999/xlink">
    <!-- Generator: Sketch 39.1 (31720) - http://www.bohemiancoding.com/sketch -->
    <title>logo</title>
    <desc>Created with Sketch.</desc>
    <defs></defs>
    <g id="Symbols" stroke="none" stroke-width="1" fill="none" fill-rule="evenodd">
        <g id="header" transform="translate(-255.000000, -22.000000)">
            <g id="logo" transform="translate(255.000000, 22.000000)">
                <g id="mark">
                    <path d="M62.4048698,39.1581016 C62.4048698,40.5482603 61.6287746,42.1234667 60.6777587,42.6629587 L32.7401714,57.011054 C31.7919175,57.5477841 30.2360444,57.5477841 29.2877905,57.0082921 L1.72490159,42.6648 C0.776647619,42.1262286 -0.000368253968,40.5482603 -0.000368253968,39.1581016 L-0.000368253968,18.2550857 C-0.000368253968,16.864927 0.776647619,15.2869587 1.72490159,14.7474667 L29.2877905,0.404895238 C30.2360444,-0.134596825 31.7919175,-0.134596825 32.7401714,0.402133333 L60.6777587,14.7502286 C61.6287746,15.2897206 62.4048698,16.864927 62.4048698,18.2550857 L62.4048698,39.1581016 Z" id="Fill-1" fill="#FFFFFF"></path>
                    <path d="M23.0972571,29.0185968 C23.0972571,25.2292635 25.9226857,22.1561841 29.4072889,22.1561841 C32.8918921,22.1561841 35.7154794,25.2292635 35.7154794,29.0185968 C35.7154794,32.8079302 32.8918921,35.8782476 29.4072889,35.8782476 C25.9226857,35.8782476 23.0972571,32.8079302 23.0972571,29.0185968 L23.0972571,29.0185968 Z M46.9288127,35.1417397 C46.5817333,35.2338032 46.2374159,35.3313905 45.8700825,35.3313905 C45.1262095,35.3313905 44.4274476,35.1270095 43.9229397,34.7127238 C43.4313206,34.2984381 43.1836698,33.7212 43.1836698,32.9754857 L43.1836698,16.474946 L35.9447175,16.474946 L35.9447175,19.3583746 C34.9439873,18.1753587 33.7830667,17.3385016 32.4803683,16.7925651 C31.172146,16.2503111 29.5251302,15.9759619 27.9996381,15.9759619 C26.1648127,15.9759619 24.5150349,16.3276444 23.0328127,17.0245651 C21.5524317,17.7187238 20.2911619,18.6568508 19.2351937,19.8325016 C18.1976381,21.0136762 17.3884,22.383581 16.8194476,23.9514222 C16.2578603,25.5238667 15.9752254,27.1791683 15.9752254,28.9265333 C15.9752254,30.7134857 16.2578603,32.3936444 16.8194476,33.9614857 C17.3884,35.5284063 18.1976381,36.9019937 19.2351937,38.0794857 C20.2911619,39.2532952 21.5524317,40.1941841 23.0328127,40.892946 C24.5150349,41.5898667 26.1648127,41.9360254 27.9996381,41.9360254 C29.7875111,41.9360254 31.3995429,41.581581 32.8421778,40.8607238 C34.2756063,40.1361841 35.4733524,39.0157714 36.4317333,37.4902794 C37.0430349,38.7957397 37.9047492,39.8645968 39.0104317,40.6959302 C40.1262413,41.5245016 41.4022413,41.9360254 42.8421143,41.9360254 C43.8382413,41.9360254 44.9365587,41.8163429 45.9372889,41.581581 C46.3064635,41.4895175 46.5863365,41.2427873 46.9288127,41.107454 L46.9288127,35.1417397 Z" id="Fill-4" fill="#F26641"></path>
                </g>
                <rect id="Rectangle" fill="#222222" x="79" y="35" width="62" height="16"></rect>
                <path d="M92.4494937,22.7315105 L94.1055527,26.6368439 L97.2199325,26.6368439 L89.6564388,9.33473418 L86.6656456,9.33473418 L79.028,26.6368439 L82.0682278,26.6368439 L83.7242869,22.7315105 L92.4494937,22.7315105 Z M91.3372152,20.1361941 L84.8118481,20.1361941 L88.0745316,12.4491139 L91.3372152,20.1361941 Z M111.284076,13.4872405 L108.441586,13.4872405 L108.441586,19.963173 C108.441586,22.2618819 107.106852,24.0168101 104.832861,24.0662447 C102.929629,24.0662447 101.767916,22.855097 101.767916,20.8777131 L101.767916,13.4872405 L98.9254262,13.4872405 L98.9254262,21.6686667 C98.9254262,24.8077637 100.729789,26.7357131 103.7453,26.7357131 C105.895705,26.7109958 107.551764,25.8953249 108.441586,24.0662447 L108.441586,26.6368439 L111.284076,26.6368439 L111.284076,13.4872405 Z M122.209122,23.6213333 C121.442886,23.9920928 120.824954,24.1898312 120.231738,24.1898312 C119.341916,24.1898312 118.822852,23.7696371 118.822852,22.4101857 L118.822852,16.1072743 L122.703468,16.1072743 L122.703468,13.9815865 L118.822852,13.9815865 L118.822852,10.3728608 L116.00508,10.3728608 L116.00508,13.9815865 L114.151283,13.9815865 L114.151283,16.1072743 L116.00508,16.1072743 L116.00508,22.9292489 C116.00508,25.6234346 117.710574,26.7604304 119.687958,26.7604304 C120.800236,26.7604304 121.887797,26.4143882 122.925924,25.7964557 L122.209122,23.6213333 Z M133.381342,13.3883713 C131.132068,13.3883713 129.451291,14.2040422 128.512034,16.0578397 L128.512034,8.29660759 L125.669544,8.29660759 L125.669544,26.6368439 L128.512034,26.6368439 L128.512034,20.1609114 C128.512034,17.8374852 129.92092,16.082557 132.269063,16.0578397 C134.246447,16.0578397 135.432878,17.2689873 135.432878,19.2463713 L135.432878,26.6368439 L138.275367,26.6368439 L138.275367,18.4554177 C138.275367,15.3163207 136.446287,13.3883713 133.381342,13.3883713 L133.381342,13.3883713 Z M147.49492,13.3883713 C143.589586,13.4130886 140.845966,16.1072743 140.845966,20.0867595 C140.845966,24.0415274 143.515435,26.7357131 147.569072,26.7357131 C149.843063,26.7357131 151.721578,25.9200422 153.006878,24.5111561 L151.499122,22.9045316 C150.535148,23.8932236 149.225131,24.4370042 147.791527,24.4370042 C145.715274,24.4370042 144.158084,23.1764219 143.713173,21.1496034 L153.649527,21.1496034 C153.99557,16.4038819 152.117055,13.3883713 147.49492,13.3883713 L147.49492,13.3883713 Z M143.663738,19.0733502 C143.985063,16.9723797 145.443384,15.6623629 147.519637,15.6623629 C149.670042,15.6623629 151.078928,16.9476624 151.177797,19.0733502 L143.663738,19.0733502 Z M164.302684,13.3883713 C162.078127,13.3883713 160.39735,14.1793249 159.458093,16.0084051 L159.458093,13.4872405 L156.615603,13.4872405 L156.615603,26.6368439 L159.458093,26.6368439 L159.458093,19.6418481 C159.655831,17.5903122 161.015283,16.082557 163.190405,16.0578397 C165.167789,16.0578397 166.354219,17.2689873 166.354219,19.2463713 L166.354219,26.6368439 L169.196709,26.6368439 L169.196709,18.4554177 C169.196709,15.3163207 167.367629,13.3883713 164.302684,13.3883713 L164.302684,13.3883713 Z M179.726278,23.6213333 C178.960042,23.9920928 178.34211,24.1898312 177.748895,24.1898312 C176.859072,24.1898312 176.340008,23.7696371 176.340008,22.4101857 L176.340008,16.1072743 L180.220624,16.1072743 L180.220624,13.9815865 L176.340008,13.9815865 L176.340008,10.3728608 L173.522236,10.3728608 L173.522236,13.9815865 L171.668439,13.9815865 L171.668439,16.1072743 L173.522236,16.1072743 L173.522236,22.9292489 C173.522236,25.6234346 175.22773,26.7604304 177.205114,26.7604304 C178.317392,26.7604304 179.404954,26.4143882 180.44308,25.7964557 L179.726278,23.6213333 Z M184.472,8 C183.532743,8 182.815941,8.71680169 182.815941,9.73021097 C182.815941,10.718903 183.532743,11.4357046 184.472,11.4357046 C185.411257,11.4357046 186.128059,10.718903 186.128059,9.73021097 C186.128059,8.71680169 185.411257,8 184.472,8 L184.472,8 Z M185.880886,26.6368439 L185.880886,13.4872405 L183.063114,13.4872405 L183.063114,26.6368439 L185.880886,26.6368439 Z M202.614498,13.4872405 L199.772008,13.4872405 L199.772008,15.7612321 C198.808034,14.2287595 197.226127,13.363654 195.100439,13.363654 C191.392844,13.363654 188.846962,16.0578397 188.846962,20.0126076 C188.846962,24.0168101 191.368127,26.7604304 195.149873,26.7604304 C197.250844,26.7604304 198.832751,25.9200422 199.772008,24.3875696 L199.772008,31.432 L202.614498,31.432 L202.614498,13.4872405 Z M195.743089,24.3875696 C193.345511,24.3875696 191.714169,22.6079241 191.689451,20.1114768 C191.714169,17.5903122 193.370228,15.7859494 195.743089,15.7859494 C198.115949,15.7859494 199.772008,17.5655949 199.772008,20.1114768 C199.772008,22.6079241 198.115949,24.3875696 195.743089,24.3875696 L195.743089,24.3875696 Z" id="Authentiq" fill="#FFFFFF"></path>
                <text id="CONNECT" font-family="Montserrat-Bold, Montserrat" font-size="9" font-weight="bold" letter-spacing="0.779999971" fill="#FFFFFF">
                    <tspan x="84" y="46">CONNECT</tspan>
                </text>
            </g>
        </g>
    </g>
</svg>