<?xml version="1.0" standalone="no"?><!DOCTYPE svg PUBLIC "-//W3C//DTD SVG 1.1//EN" "http://www.w3.org/Graphics/SVG/1.1/DTD/svg11.dtd"><svg viewBox="0 0 100 90" version="1.1"	xmlns="http://www.w3.org/2000/svg" xmlns:xlink="http://www.w3.org/1999/xlink" xml:space="preserve"	x="0px" y="0px" width="100px" height="90px">	<g id="logo">		<path d="M 73 54.0785 L 73 62.4947 C 72.5012 62.6878 71.8169 63.0352 71.2774 63.1645 C 69.812 63.4969 68.4912 63.6652 67.0305 63.6652 C 64.9231 63.6652 63.0563 63.0848 61.4267 61.9153 C 59.8067 60.7438 58.5471 59.2365 57.6526 57.3917 C 56.2489 59.5441 54.4959 61.1257 52.3983 62.1484 C 50.29 63.1645 47.9301 63.6652 45.3131 63.6652 C 42.6294 63.6652 40.2132 63.1743 38.0434 62.1926 C 35.8785 61.2055 34.0332 59.8805 32.4905 58.2246 C 30.9687 56.563 29.7859 54.6246 28.9532 52.4128 C 28.1308 50.2 27.7193 47.8299 27.7193 45.3096 C 27.7193 42.8455 28.1308 40.5087 28.9532 38.2927 C 29.7859 36.081 30.9687 34.1456 32.4905 32.4798 C 34.0332 30.8227 35.8785 29.4989 38.0434 28.5171 C 40.2132 27.5343 42.6294 27.0392 45.3131 27.0392 C 47.5447 27.0392 50.0176 27.4264 51.9302 28.1903 C 53.8378 28.9627 55.5343 29.3994 57 31.0662 L 57 27 L 68 27 L 68 51.0232 C 68 52.0751 68.3602 52.8885 69.08 53.4732 C 69.8203 54.0591 70.3622 54.3462 71.4521 54.3462 C 71.9874 54.3462 72.491 54.208 73 54.0785 ZM 100 61.3837 L 100 28.6168 C 100 26.4381 98.7496 23.9664 97.2213 23.124 L 53.9407 1.5062 C 50.0811 -0.5648 48.8573 -0.3295 45 1.6474 L 2.7776 23.1202 C 1.2498 23.9649 0 26.4381 0 28.6168 L 0 61.3837 C 0 63.5621 1.2498 66.0362 2.7776 66.8805 L 45.0187 88.3636 C 49.5222 90.8828 50.5576 90.0546 54.0258 88.4844 L 97.2213 66.877 C 98.7496 66.0341 100 63.5621 100 61.3837 ZM 38.1402 45.4394 C 38.1402 50.7854 42.2735 55.1191 47.3727 55.1191 C 52.4719 55.1191 56.6051 50.7854 56.6051 45.4394 C 56.6051 40.0934 52.4719 35.7596 47.3727 35.7596 C 42.2735 35.7596 38.1402 40.0934 38.1402 45.4394 Z" fill="#ffffff"/>	</g></svg>